<svg xmlns="http://www.w3.org/2000/svg" xmlns:xlink="http://www.w3.org/1999/xlink" width="48" zoomAndPan="magnify" viewBox="0 0 36 36.000001" height="48" preserveAspectRatio="xMidYMid meet" version="1.0"><defs><g/><clipPath id="ed81e814e3"><path d="M 0.488281 0 L 35.511719 0 L 35.511719 35.027344 L 0.488281 35.027344 Z M 0.488281 0 " clip-rule="nonzero"/></clipPath><clipPath id="3c32726278"><path d="M 0.488281 0 L 35.511719 0 L 35.511719 35.027344 L 0.488281 35.027344 Z M 0.488281 0 " clip-rule="nonzero"/></clipPath><clipPath id="509ff231dd"><path d="M 18 0 C 8.328125 0 0.488281 7.839844 0.488281 17.511719 C 0.488281 27.1875 8.328125 35.027344 18 35.027344 C 27.671875 35.027344 35.511719 27.1875 35.511719 17.511719 C 35.511719 7.839844 27.671875 0 18 0 " clip-rule="nonzero"/></clipPath></defs><g clip-path="url(#ed81e814e3)"><path fill="#ffffff" d="M 0.488281 0 L 35.511719 0 L 35.511719 42.324219 L 0.488281 42.324219 Z M 0.488281 0 " fill-opacity="1" fill-rule="nonzero"/><path fill="#ffffff" d="M 0.488281 0 L 35.511719 0 L 35.511719 35.027344 L 0.488281 35.027344 Z M 0.488281 0 " fill-opacity="1" fill-rule="nonzero"/></g><g clip-path="url(#3c32726278)"><g clip-path="url(#509ff231dd)"><path fill="#ffffff" d="M 0.488281 0 L 35.511719 0 L 35.511719 35.027344 L 0.488281 35.027344 Z M 0.488281 0 " fill-opacity="1" fill-rule="nonzero"/></g></g><g fill="#ffde59" fill-opacity="1"><g transform="translate(0.859991, 22.991733)"><g><path d="M 6.4375 -8.109375 C 6.4375 -7.359375 6.316406 -6.789062 6.078125 -6.40625 C 5.835938 -6.019531 5.445312 -5.75 4.90625 -5.59375 C 5.445312 -5.445312 5.835938 -5.175781 6.078125 -4.78125 C 6.316406 -4.394531 6.4375 -3.832031 6.4375 -3.09375 L 6.4375 -0.46875 C 6.4375 0.0078125 6.554688 0.375 6.796875 0.625 C 7.046875 0.875 7.414062 1 7.90625 1 L 8.203125 1 L 8.203125 3.96875 L 6.859375 3.96875 C 5.441406 3.96875 4.367188 3.625 3.640625 2.9375 C 2.910156 2.25 2.546875 1.265625 2.546875 -0.015625 L 2.546875 -3.1875 C 2.546875 -3.5 2.46875 -3.726562 2.3125 -3.875 C 2.15625 -4.03125 1.941406 -4.109375 1.671875 -4.109375 L 0.984375 -4.109375 L 0.984375 -7.09375 L 1.671875 -7.09375 C 1.941406 -7.09375 2.15625 -7.164062 2.3125 -7.3125 C 2.46875 -7.46875 2.546875 -7.703125 2.546875 -8.015625 L 2.546875 -11.171875 C 2.546875 -12.453125 2.910156 -13.4375 3.640625 -14.125 C 4.367188 -14.820312 5.441406 -15.171875 6.859375 -15.171875 L 8.203125 -15.171875 L 8.203125 -12.203125 L 7.90625 -12.203125 C 7.414062 -12.203125 7.046875 -12.070312 6.796875 -11.8125 C 6.554688 -11.5625 6.4375 -11.203125 6.4375 -10.734375 Z M 6.4375 -8.109375 "/></g></g></g><g fill="#515359" fill-opacity="1"><g transform="translate(9.322187, 22.991733)"><g><path d="M 2.875 0.1875 C 2.226562 0.1875 1.675781 -0.03125 1.21875 -0.46875 C 0.769531 -0.90625 0.546875 -1.457031 0.546875 -2.125 C 0.546875 -2.800781 0.765625 -3.351562 1.203125 -3.78125 C 1.648438 -4.207031 2.207031 -4.421875 2.875 -4.421875 C 3.5625 -4.421875 4.125 -4.207031 4.5625 -3.78125 C 5 -3.351562 5.21875 -2.800781 5.21875 -2.125 C 5.21875 -1.457031 4.992188 -0.90625 4.546875 -0.46875 C 4.109375 -0.03125 3.550781 0.1875 2.875 0.1875 Z M 2.875 0.1875 "/></g></g></g><g fill="#515359" fill-opacity="1"><g transform="translate(15.10706, 22.991733)"><g><path d="M 2.875 0.1875 C 2.226562 0.1875 1.675781 -0.03125 1.21875 -0.46875 C 0.769531 -0.90625 0.546875 -1.457031 0.546875 -2.125 C 0.546875 -2.800781 0.765625 -3.351562 1.203125 -3.78125 C 1.648438 -4.207031 2.207031 -4.421875 2.875 -4.421875 C 3.5625 -4.421875 4.125 -4.207031 4.5625 -3.78125 C 5 -3.351562 5.21875 -2.800781 5.21875 -2.125 C 5.21875 -1.457031 4.992188 -0.90625 4.546875 -0.46875 C 4.109375 -0.03125 3.550781 0.1875 2.875 0.1875 Z M 2.875 0.1875 "/></g></g></g><g fill="#515359" fill-opacity="1"><g transform="translate(20.891932, 22.991733)"><g><path d="M 2.875 0.1875 C 2.226562 0.1875 1.675781 -0.03125 1.21875 -0.46875 C 0.769531 -0.90625 0.546875 -1.457031 0.546875 -2.125 C 0.546875 -2.800781 0.765625 -3.351562 1.203125 -3.78125 C 1.648438 -4.207031 2.207031 -4.421875 2.875 -4.421875 C 3.5625 -4.421875 4.125 -4.207031 4.5625 -3.78125 C 5 -3.351562 5.21875 -2.800781 5.21875 -2.125 C 5.21875 -1.457031 4.992188 -0.90625 4.546875 -0.46875 C 4.109375 -0.03125 3.550781 0.1875 2.875 0.1875 Z M 2.875 0.1875 "/></g></g></g><g fill="#ffde59" fill-opacity="1"><g transform="translate(26.675853, 22.991733)"><g><path d="M 7.453125 -7.09375 L 7.453125 -4.109375 L 6.78125 -4.109375 C 6.507812 -4.109375 6.296875 -4.03125 6.140625 -3.875 C 5.984375 -3.726562 5.90625 -3.5 5.90625 -3.1875 L 5.90625 -0.015625 C 5.90625 1.265625 5.539062 2.25 4.8125 2.9375 C 4.082031 3.625 3.007812 3.96875 1.59375 3.96875 L 0.25 3.96875 L 0.25 1 L 0.546875 1 C 1.035156 1 1.398438 0.875 1.640625 0.625 C 1.890625 0.375 2.015625 0.0078125 2.015625 -0.46875 L 2.015625 -3.09375 C 2.015625 -3.832031 2.132812 -4.394531 2.375 -4.78125 C 2.613281 -5.175781 3.007812 -5.445312 3.5625 -5.59375 C 3.007812 -5.75 2.613281 -6.019531 2.375 -6.40625 C 2.132812 -6.789062 2.015625 -7.359375 2.015625 -8.109375 L 2.015625 -10.734375 C 2.015625 -11.203125 1.890625 -11.5625 1.640625 -11.8125 C 1.398438 -12.070312 1.035156 -12.203125 0.546875 -12.203125 L 0.25 -12.203125 L 0.25 -15.171875 L 1.59375 -15.171875 C 3.007812 -15.171875 4.082031 -14.820312 4.8125 -14.125 C 5.539062 -13.4375 5.90625 -12.453125 5.90625 -11.171875 L 5.90625 -8.015625 C 5.90625 -7.703125 5.984375 -7.46875 6.140625 -7.3125 C 6.296875 -7.164062 6.507812 -7.09375 6.78125 -7.09375 Z M 7.453125 -7.09375 "/></g></g></g></svg>